<svg version="1.1" id="Layer_1" xmlns="http://www.w3.org/2000/svg" x="0" y="0" viewBox="0 0 55.2 38.4" style="enable-background:new 0 0 55.2 38.4" xml:space="preserve"><style>.st1{fill:#fff}</style><path d="M3.03 0h49.13c1.67 0 3.03 1.36 3.03 3.03v32.33c0 1.67-1.36 3.03-3.03 3.03H3.03A3.02 3.02 0 0 1 0 35.37V3.03C0 1.36 1.36 0 3.03 0z" style="fill:#b22234"/><path class="st1" d="M.02 2.73h55.17c.01.1.02.2.02.31v2.94H0V3.03c0-.1.01-.2.02-.3zM55.2 8.67v3.24H0V8.67h55.2zm0 5.94v3.24H0v-3.24h55.2zm0 5.94v3.24H0v-3.24h55.2zm0 5.94v3.24H0v-3.24h55.2zm0 5.94v2.93c0 .1-.01.21-.02.31H.02c-.01-.09-.02-.2-.02-.3v-2.93h55.2v-.01z"/><path d="M20.8 0v20.68H0V3.03C0 1.36 1.36 0 3.03 0H20.8z" style="fill:#3c3b6e"/><path class="st1" d="m1.23 2.86.69 2.15L.1 3.68h2.26L.53 5.01l.7-2.15zM1.23 7.02l.69 2.15L.1 7.84h2.26L.53 9.17l.7-2.15zM1.23 11.18l.69 2.15L.1 12h2.26L.53 13.33l.7-2.15zM1.23 15.34l.69 2.15L.1 16.16h2.26L.53 17.49l.7-2.15zM3.67.78l.7 2.15L2.54 1.6h2.27L2.97 2.93l.7-2.15zM3.67 4.94l.7 2.15-1.83-1.33h2.27L2.97 7.09l.7-2.15zM3.67 9.1l.7 2.15-1.83-1.33h2.27l-1.84 1.33.7-2.15zM3.67 13.26l.7 2.15-1.83-1.33h2.27l-1.84 1.33.7-2.15zM3.67 17.42l.7 2.15-1.83-1.33h2.27l-1.84 1.33.7-2.15zM6.12 2.86l.7 2.15-1.83-1.33h2.26L5.42 5.01l.7-2.15zM6.12 7.02l.7 2.15-1.83-1.33h2.26L5.42 9.17l.7-2.15zM6.12 11.18l.7 2.15L4.99 12h2.26l-1.83 1.33.7-2.15zM6.12 15.34l.7 2.15-1.83-1.33h2.26l-1.83 1.33.7-2.15zM8.57.78l.69 2.15L7.44 1.6H9.7L7.87 2.93l.7-2.15zM8.57 4.94l.69 2.15-1.82-1.33H9.7L7.87 7.09l.7-2.15zM8.57 9.1l.69 2.15-1.82-1.33H9.7l-1.83 1.33.7-2.15zM8.57 13.26l.69 2.15-1.82-1.33H9.7l-1.83 1.33.7-2.15zM8.57 17.42l.69 2.15-1.82-1.33H9.7l-1.83 1.33.7-2.15zM11.01 2.86l.7 2.15-1.83-1.33h2.26l-1.83 1.33.7-2.15zM11.01 7.02l.7 2.15-1.83-1.33h2.26l-1.83 1.33.7-2.15zM11.01 11.18l.7 2.15L9.88 12h2.26l-1.83 1.33.7-2.15zM11.01 15.34l.7 2.15-1.83-1.33h2.26l-1.83 1.33.7-2.15zM13.46.78l.7 2.15-1.83-1.33h2.26l-1.83 1.33.7-2.15zM13.46 4.94l.7 2.15-1.83-1.33h2.26l-1.83 1.33.7-2.15zM13.46 9.1l.7 2.15-1.83-1.33h2.26l-1.83 1.33.7-2.15zM13.46 13.26l.7 2.15-1.83-1.33h2.26l-1.83 1.33.7-2.15zM13.46 17.42l.7 2.15-1.83-1.33h2.26l-1.83 1.33.7-2.15zM15.9 2.86l.7 2.15-1.83-1.33h2.26l-1.82 1.33.69-2.15zM15.9 7.02l.7 2.15-1.83-1.33h2.26l-1.82 1.33.69-2.15zM15.9 11.18l.7 2.15L14.77 12h2.26l-1.82 1.33.69-2.15zM15.9 15.34l.7 2.15-1.83-1.33h2.26l-1.82 1.33.69-2.15zM18.35.78l.7 2.15-1.83-1.33h2.26l-1.83 1.33.7-2.15zM18.35 4.94l.7 2.15-1.83-1.33h2.26l-1.83 1.33.7-2.15zM18.35 9.1l.7 2.15-1.83-1.33h2.26l-1.83 1.33.7-2.15zM18.35 13.26l.7 2.15-1.83-1.33h2.26l-1.83 1.33.7-2.15zM18.35 17.42l.7 2.15-1.83-1.33h2.26l-1.83 1.33.7-2.15z"/></svg>