<svg aria-hidden="true" style="position: absolute; width: 0; height: 0; overflow: hidden;" version="1.1" xmlns="http://www.w3.org/2000/svg" xmlns:xlink="http://www.w3.org/1999/xlink">
<defs>
<symbol id="icon-flag-ru" viewBox="0 0 48 32">
<path fill="#fff" style="fill: var(--color1, #fff)" d="M0 0h48v16h-48z"></path>
<path fill="#d52b1e" style="fill: var(--color2, #d52b1e)" d="M0 16h48v16h-48z"></path>
<path fill="#0039a6" style="fill: var(--color3, #0039a6)" d="M0 10.667h48v10.667h-48z"></path>
</symbol>
<symbol id="icon-flag-us" viewBox="0 0 46 32">
<path fill="#b22234" style="fill: var(--color4, #b22234)" d="M2.525 0h40.942c1.392 0 2.525 1.133 2.525 2.525v26.942c0 1.392-1.133 2.525-2.525 2.525h-40.942c-0.002 0-0.005 0-0.008 0-1.39 0-2.517-1.127-2.517-2.517 0 0 0 0 0 0v0-26.95c0-1.392 1.133-2.525 2.525-2.525z"></path>
<path fill="#fff" style="fill: var(--color1, #fff)" d="M0.017 2.275h45.975c0.008 0.083 0.017 0.167 0.017 0.258v2.45h-46.008v-2.458c0-0.083 0.008-0.167 0.017-0.25zM46 7.225v2.7h-46v-2.7h46zM46 12.175v2.7h-46v-2.7h46zM46 17.125v2.7h-46v-2.7h46zM46 22.075v2.7h-46v-2.7h46zM46 27.025v2.442c0 0.083-0.008 0.175-0.017 0.258h-45.967c-0.008-0.075-0.017-0.167-0.017-0.25v-2.442l46-0.008z"></path>
<path fill="#3c3b6e" style="fill: var(--color5, #3c3b6e)" d="M17.333 0v17.233h-17.333v-14.708c0-1.392 1.133-2.525 2.525-2.525h14.808z"></path>
<path fill="#fff" style="fill: var(--color1, #fff)" d="M1.025 2.383l0.575 1.792-1.517-1.108h1.883l-1.525 1.108 0.583-1.792zM1.025 5.85l0.575 1.792-1.517-1.108h1.883l-1.525 1.108 0.583-1.792zM1.025 9.317l0.575 1.792-1.517-1.108h1.883l-1.525 1.108 0.583-1.792zM1.025 12.783l0.575 1.792-1.517-1.108h1.883l-1.525 1.108 0.583-1.792zM3.058 0.65l0.583 1.792-1.525-1.108h1.892l-1.533 1.108 0.583-1.792zM3.058 4.117l0.583 1.792-1.525-1.108h1.892l-1.533 1.108 0.583-1.792zM3.058 7.583l0.583 1.792-1.525-1.108h1.892l-1.533 1.108 0.583-1.792zM3.058 11.050l0.583 1.792-1.525-1.108h1.892l-1.533 1.108 0.583-1.792zM3.058 14.517l0.583 1.792-1.525-1.108h1.892l-1.533 1.108 0.583-1.792zM5.1 2.383l0.583 1.792-1.525-1.108h1.883l-1.525 1.108 0.583-1.792zM5.1 5.85l0.583 1.792-1.525-1.108h1.883l-1.525 1.108 0.583-1.792zM5.1 9.317l0.583 1.792-1.525-1.108h1.883l-1.525 1.108 0.583-1.792zM5.1 12.783l0.583 1.792-1.525-1.108h1.883l-1.525 1.108 0.583-1.792zM7.142 0.65l0.575 1.792-1.517-1.108h1.883l-1.525 1.108 0.583-1.792zM7.142 4.117l0.575 1.792-1.517-1.108h1.883l-1.525 1.108 0.583-1.792zM7.142 7.583l0.575 1.792-1.517-1.108h1.883l-1.525 1.108 0.583-1.792zM7.142 11.050l0.575 1.792-1.517-1.108h1.883l-1.525 1.108 0.583-1.792zM7.142 14.517l0.575 1.792-1.517-1.108h1.883l-1.525 1.108 0.583-1.792zM9.175 2.383l0.583 1.792-1.525-1.108h1.883l-1.525 1.108 0.583-1.792zM9.175 5.85l0.583 1.792-1.525-1.108h1.883l-1.525 1.108 0.583-1.792zM9.175 9.317l0.583 1.792-1.525-1.108h1.883l-1.525 1.108 0.583-1.792zM9.175 12.783l0.583 1.792-1.525-1.108h1.883l-1.525 1.108 0.583-1.792zM11.217 0.65l0.583 1.792-1.525-1.108h1.883l-1.525 1.108 0.583-1.792zM11.217 4.117l0.583 1.792-1.525-1.108h1.883l-1.525 1.108 0.583-1.792zM11.217 7.583l0.583 1.792-1.525-1.108h1.883l-1.525 1.108 0.583-1.792zM11.217 11.050l0.583 1.792-1.525-1.108h1.883l-1.525 1.108 0.583-1.792zM11.217 14.517l0.583 1.792-1.525-1.108h1.883l-1.525 1.108 0.583-1.792zM13.25 2.383l0.583 1.792-1.525-1.108h1.883l-1.517 1.108 0.575-1.792zM13.25 5.85l0.583 1.792-1.525-1.108h1.883l-1.517 1.108 0.575-1.792zM13.25 9.317l0.583 1.792-1.525-1.108h1.883l-1.517 1.108 0.575-1.792zM13.25 12.783l0.583 1.792-1.525-1.108h1.883l-1.517 1.108 0.575-1.792zM15.292 0.65l0.583 1.792-1.525-1.108h1.883l-1.525 1.108 0.583-1.792zM15.292 4.117l0.583 1.792-1.525-1.108h1.883l-1.525 1.108 0.583-1.792zM15.292 7.583l0.583 1.792-1.525-1.108h1.883l-1.525 1.108 0.583-1.792zM15.292 11.050l0.583 1.792-1.525-1.108h1.883l-1.525 1.108 0.583-1.792zM15.292 14.517l0.583 1.792-1.525-1.108h1.883l-1.525 1.108 0.583-1.792z"></path>
</symbol>
</defs>
</svg>
